<svg width="1161" height="192" viewBox="0 0 1161 192" fill="none" xmlns="http://www.w3.org/2000/svg">
<path d="M19 51.8H63.4C84.6 51.8 99.8 56.1 109 64.7C118.4 73.3 123.1 87.3 123.1 106.7V187.7H99.1V170.9C98.9 171.1 98.7 171.3 98.5 171.5C93.5 176.9 88.4 181.2 83.2 184.4C78 187.4 70.5 189.2 60.7 189.8C43.5 191 29.3 188 18.1 180.8C7.1 173.6 1.4 162.8 1 148.4C0.6 133.8 5.7 122.3 16.3 113.9C26.9 105.3 41.6 101 60.4 101H98.8C98.8 90.8 95.8 83.9 89.8 80.3C84 76.5 75.6 74.6 64.6 74.6H19V51.8ZM99.1 123.5H60.4C49.8 123.5 41.5 125.5 35.5 129.5C29.7 133.3 26.7 138.5 26.5 145.1C26.1 153.5 29.3 159.5 36.1 163.1C42.9 166.7 51.6 167.7 62.2 166.1C69 165.1 75.1 162.7 80.5 158.9C85.9 154.9 90.3 150.7 93.7 146.3C97.3 141.9 99.1 139.7 99.1 139.7V123.5ZM391.387 63.8L375.787 84.2C371.387 76 364.087 72.2 353.887 72.8C348.687 73 343.087 75.4 337.087 80C331.287 84.6 322.887 93 311.887 105.2C307.087 110.6 299.987 118.8 290.587 129.8C282.187 139.8 276.687 146.1 274.087 148.7V188H250.087V170.9C243.687 176.7 236.587 181.3 228.787 184.7C220.987 188.1 213.087 189.9 205.087 190.1C192.487 190.3 180.787 187.3 169.987 181.1C159.187 174.7 150.587 166.1 144.187 155.3C137.987 144.5 134.887 132.7 134.887 119.9C134.887 107.3 137.987 95.6 144.187 84.8C150.587 73.8 159.087 65.2 169.687 59C180.487 52.8 192.287 49.8 205.087 50C221.687 50.2 236.687 56.5 250.087 68.9V1.09999H274.087V102.5L248.887 129.2C249.687 126.2 250.087 123.1 250.087 119.9C250.087 107.5 245.687 96.9 236.887 88.1C228.087 79.3 217.487 74.9 205.087 74.9C192.687 74.9 182.087 79.3 173.287 88.1C164.487 96.9 160.087 107.5 160.087 119.9C160.087 132.3 164.487 142.9 173.287 151.7C182.087 160.5 192.687 164.9 205.087 164.9C218.087 164.9 231.587 157.8 245.587 143.6C251.187 138.2 257.187 132 263.587 125C269.987 117.8 273.187 114.2 273.187 114.2C275.187 112 278.087 108.7 281.887 104.3C286.087 99.5 289.187 96 291.187 93.8V52.1H315.487V69.2C321.087 63.2 326.487 58.6 331.687 55.4C337.087 52.2 343.687 50.4 351.487 50C368.887 49 382.187 53.6 391.387 63.8ZM291.187 140.9L315.487 112.1V188H291.187V140.9ZM427.016 14.3C424.016 11.3 420.316 9.79999 415.916 9.79999C411.716 9.79999 408.116 11.3 405.116 14.3C402.116 17.3 400.616 21 400.616 25.4C400.616 29.6 402.116 33.2 405.116 36.2C408.116 39.2 411.716 40.7 415.916 40.7C420.316 40.7 424.016 39.2 427.016 36.2C430.016 33.2 431.516 29.6 431.516 25.4C431.516 21 430.016 17.3 427.016 14.3ZM403.916 187.7V51.8H427.916V187.7H403.916ZM458.16 51.8H502.56C523.76 51.8 538.96 56.1 548.16 64.7C557.56 73.3 562.26 87.3 562.26 106.7V187.7H538.26V170.9C538.06 171.1 537.86 171.3 537.66 171.5C532.66 176.9 527.56 181.2 522.36 184.4C517.16 187.4 509.66 189.2 499.86 189.8C482.66 191 468.46 188 457.26 180.8C446.26 173.6 440.56 162.8 440.16 148.4C439.76 133.8 444.86 122.3 455.46 113.9C466.06 105.3 480.76 101 499.56 101H537.96C537.96 90.8 534.96 83.9 528.96 80.3C523.16 76.5 514.76 74.6 503.76 74.6H458.16V51.8ZM538.26 123.5H499.56C488.96 123.5 480.66 125.5 474.66 129.5C468.86 133.3 465.86 138.5 465.66 145.1C465.26 153.5 468.46 159.5 475.26 163.1C482.06 166.7 490.76 167.7 501.36 166.1C508.16 165.1 514.26 162.7 519.66 158.9C525.06 154.9 529.46 150.7 532.86 146.3C536.46 141.9 538.26 139.7 538.26 139.7V123.5Z" fill="#054635"/>
<path d="M598.188 187.7V0.799996H622.188V187.7H598.188ZM694.082 187.7H670.082V51.8H694.382V68.9C707.182 56.7 722.182 50.3 739.382 49.7C760.182 48.9 776.182 55.3 787.382 68.9C798.782 82.3 804.482 99.3 804.482 119.9V187.7H780.182V119.9C780.182 106.1 776.882 94.7 770.282 85.7C763.682 76.5 753.382 72.1 739.382 72.5C730.182 72.7 722.182 75 715.382 79.4C708.582 83.6 703.382 88.6 699.782 94.4C696.182 100.2 694.382 105.5 694.382 110.3L694.082 187.7ZM862.914 136.7V74.6H840.414V51.8H862.914V25.7H886.914V51.8H925.014V74.6H887.214V136.7C887.214 147.3 889.414 154.7 893.814 158.9C898.214 163.1 905.314 165.2 915.114 165.2H925.014V187.7H916.314C880.714 187.7 862.914 170.7 862.914 136.7ZM1094.51 95.6L996.112 151.7C1004.91 160.5 1015.51 164.9 1027.91 164.9C1036.31 164.9 1044.01 162.8 1051.01 158.6C1058.21 154.2 1063.71 148.5 1067.51 141.5L1088.81 155C1082.61 165.6 1074.11 174.1 1063.31 180.5C1052.51 186.9 1040.71 190.1 1027.91 190.1C1015.31 190.1 1003.61 187 992.812 180.8C982.212 174.4 973.712 165.9 967.312 155.3C961.112 144.5 958.012 132.7 958.012 119.9C958.012 107.3 961.112 95.6 967.312 84.8C973.712 74 982.212 65.5 992.812 59.3C1003.61 53.1 1015.31 50 1027.91 50C1044.71 50 1059.61 55.6 1072.61 66.8C1077.01 70.4 1080.81 74.4 1084.01 78.8C1087.21 83 1089.71 86.9 1091.51 90.5C1093.51 93.9 1094.51 95.6 1094.51 95.6ZM984.712 131.9L1060.61 88.7C1051.61 79.5 1040.71 74.9 1027.91 74.9C1015.51 74.9 1004.91 79.3 996.112 88.1C987.312 96.9 982.912 107.5 982.912 119.9C982.912 124.1 983.512 128.1 984.712 131.9ZM1136.25 187.7V0.799996H1160.25V187.7H1136.25Z" fill="#1F604F"/>
</svg>
