<svg width="316" height="49" viewBox="0 0 316 49" fill="none" xmlns="http://www.w3.org/2000/svg">
<path d="M1.92 48C1.57867 48 1.25867 47.872 0.96 47.616C0.704 47.3173 0.576 46.9973 0.576 46.656C0.576 46.4427 0.597333 46.2507 0.64 46.08L15.68 4.992C15.808 4.52266 16.064 4.11733 16.448 3.776C16.8747 3.392 17.4507 3.2 18.176 3.2H27.648C28.3733 3.2 28.928 3.392 29.312 3.776C29.7387 4.11733 30.016 4.52266 30.144 4.992L45.12 46.08C45.2053 46.2507 45.248 46.4427 45.248 46.656C45.248 46.9973 45.0987 47.3173 44.8 47.616C44.544 47.872 44.224 48 43.84 48H35.968C35.328 48 34.8373 47.8507 34.496 47.552C34.1973 47.2107 34.0053 46.912 33.92 46.656L31.424 40.128H14.336L11.904 46.656C11.8187 46.912 11.6267 47.2107 11.328 47.552C11.0293 47.8507 10.5173 48 9.792 48H1.92ZM16.96 30.912H28.864L22.848 14.016L16.96 30.912ZM65.4695 48.64C63.4215 48.64 61.5655 48.32 59.9015 47.68C58.2802 46.9973 56.8722 46.016 55.6775 44.736C54.5255 43.4133 53.6295 41.8347 52.9895 40C52.3495 38.1227 51.9868 35.9893 51.9015 33.6C51.8588 32.7467 51.8375 32 51.8375 31.36C51.8375 30.6773 51.8588 29.9307 51.9015 29.12C51.9868 26.816 52.3495 24.7467 52.9895 22.912C53.6295 21.0773 54.5255 19.4987 55.6775 18.176C56.8295 16.8533 58.2375 15.8507 59.9015 15.168C61.5655 14.4427 63.4215 14.08 65.4695 14.08C67.6028 14.08 69.4375 14.4427 70.9735 15.168C72.5095 15.8507 73.8108 16.7467 74.8775 17.856V4.16C74.8775 3.69066 75.0268 3.30666 75.3255 3.008C75.6242 2.70933 76.0082 2.56 76.4775 2.56H84.2855C84.7122 2.56 85.0748 2.70933 85.3735 3.008C85.7148 3.30666 85.8855 3.69066 85.8855 4.16V46.4C85.8855 46.8693 85.7148 47.2533 85.3735 47.552C85.0748 47.8507 84.7122 48 84.2855 48H77.0535C76.5842 48 76.2002 47.8507 75.9015 47.552C75.6028 47.2533 75.4535 46.8693 75.4535 46.4V44.352C74.4295 45.5893 73.1068 46.6133 71.4855 47.424C69.8642 48.2347 67.8588 48.64 65.4695 48.64ZM68.9255 40.064C70.3762 40.064 71.5068 39.7653 72.3175 39.168C73.1708 38.528 73.7895 37.7173 74.1735 36.736C74.6002 35.7547 74.8348 34.688 74.8775 33.536C74.9202 32.6827 74.9415 31.872 74.9415 31.104C74.9415 30.336 74.9202 29.5467 74.8775 28.736C74.8348 27.6693 74.6002 26.688 74.1735 25.792C73.7468 24.8533 73.1068 24.1067 72.2535 23.552C71.4002 22.9547 70.2908 22.656 68.9255 22.656C67.5175 22.656 66.3868 22.9547 65.5335 23.552C64.7228 24.1493 64.1468 24.96 63.8055 25.984C63.4642 27.008 63.2508 28.1387 63.1655 29.376C63.0375 30.6987 63.0375 32.0213 63.1655 33.344C63.2508 34.5813 63.4642 35.712 63.8055 36.736C64.1468 37.76 64.7228 38.5707 65.5335 39.168C66.3868 39.7653 67.5175 40.064 68.9255 40.064ZM98.8685 48C98.3992 48 98.0152 47.8507 97.7165 47.552C97.4178 47.2533 97.2685 46.8693 97.2685 46.4V16.32C97.2685 15.8933 97.4178 15.5307 97.7165 15.232C98.0152 14.8907 98.3992 14.72 98.8685 14.72H106.229C106.698 14.72 107.082 14.8907 107.381 15.232C107.679 15.5307 107.829 15.8933 107.829 16.32V18.88C108.981 17.5573 110.346 16.5333 111.925 15.808C113.546 15.0827 115.359 14.72 117.365 14.72H120.181C120.607 14.72 120.97 14.8693 121.269 15.168C121.61 15.4667 121.781 15.8507 121.781 16.32V22.912C121.781 23.3387 121.61 23.7227 121.269 24.064C120.97 24.3627 120.607 24.512 120.181 24.512H113.973C112.223 24.512 110.858 25.0027 109.877 25.984C108.938 26.9227 108.469 28.2667 108.469 30.016V46.4C108.469 46.8693 108.298 47.2533 107.957 47.552C107.658 47.8507 107.274 48 106.805 48H98.8685ZM131.771 48C131.302 48 130.918 47.8507 130.619 47.552C130.32 47.2533 130.171 46.8693 130.171 46.4V16.32C130.171 15.8507 130.32 15.4667 130.619 15.168C130.918 14.8693 131.302 14.72 131.771 14.72H139.323C139.75 14.72 140.112 14.8693 140.411 15.168C140.752 15.4667 140.923 15.8507 140.923 16.32V46.4C140.923 46.8693 140.752 47.2533 140.411 47.552C140.112 47.8507 139.75 48 139.323 48H131.771ZM131.707 9.92C131.238 9.92 130.854 9.77066 130.555 9.472C130.256 9.17333 130.107 8.78933 130.107 8.32V2.624C130.107 2.15466 130.256 1.77066 130.555 1.472C130.854 1.13066 131.238 0.959999 131.707 0.959999H139.323C139.792 0.959999 140.176 1.13066 140.475 1.472C140.816 1.77066 140.987 2.15466 140.987 2.624V8.32C140.987 8.78933 140.816 9.17333 140.475 9.472C140.176 9.77066 139.792 9.92 139.323 9.92H131.707ZM162.245 48.64C159.941 48.64 157.872 48.2133 156.037 47.36C154.245 46.464 152.816 45.2693 151.749 43.776C150.682 42.2827 150.149 40.5973 150.149 38.72C150.149 35.6907 151.386 33.3013 153.861 31.552C156.336 29.76 159.621 28.544 163.717 27.904L171.717 26.688V25.792C171.717 24.256 171.397 23.0827 170.757 22.272C170.117 21.4613 168.944 21.056 167.237 21.056C166.042 21.056 165.061 21.2907 164.293 21.76C163.568 22.2293 162.992 22.8693 162.565 23.68C162.181 24.2347 161.648 24.512 160.965 24.512H153.797C153.328 24.512 152.965 24.384 152.709 24.128C152.453 23.8293 152.346 23.488 152.389 23.104C152.389 22.336 152.666 21.4613 153.221 20.48C153.818 19.456 154.714 18.4533 155.909 17.472C157.104 16.4907 158.64 15.68 160.517 15.04C162.394 14.4 164.656 14.08 167.301 14.08C170.074 14.08 172.442 14.4 174.405 15.04C176.368 15.68 177.946 16.576 179.141 17.728C180.378 18.88 181.296 20.2453 181.893 21.824C182.49 23.36 182.789 25.0667 182.789 26.944V46.4C182.789 46.8693 182.618 47.2533 182.277 47.552C181.978 47.8507 181.616 48 181.189 48H173.765C173.296 48 172.912 47.8507 172.613 47.552C172.314 47.2533 172.165 46.8693 172.165 46.4V44.16C171.61 44.9707 170.864 45.7173 169.925 46.4C168.986 47.0827 167.877 47.616 166.597 48C165.36 48.4267 163.909 48.64 162.245 48.64ZM165.253 41.344C166.49 41.344 167.6 41.088 168.581 40.576C169.605 40.0213 170.394 39.1893 170.949 38.08C171.546 36.928 171.845 35.4987 171.845 33.792V32.896L166.405 33.856C164.4 34.1973 162.928 34.7307 161.989 35.456C161.093 36.1387 160.645 36.9493 160.645 37.888C160.645 38.6133 160.858 39.232 161.285 39.744C161.712 40.256 162.266 40.6613 162.949 40.96C163.632 41.216 164.4 41.344 165.253 41.344ZM197.499 48C197.072 48 196.731 47.872 196.475 47.616C196.219 47.36 196.091 47.0187 196.091 46.592V4.608C196.091 4.18133 196.219 3.84 196.475 3.584C196.731 3.328 197.072 3.2 197.499 3.2H198.715C199.142 3.2 199.483 3.328 199.739 3.584C199.995 3.84 200.123 4.18133 200.123 4.608V46.592C200.123 47.0187 199.995 47.36 199.739 47.616C199.483 47.872 199.142 48 198.715 48H197.499ZM214.009 48C213.583 48 213.241 47.872 212.985 47.616C212.729 47.36 212.601 47.0187 212.601 46.592V16.128C212.601 15.7013 212.729 15.36 212.985 15.104C213.241 14.848 213.583 14.72 214.009 14.72H215.097C215.524 14.72 215.865 14.848 216.121 15.104C216.377 15.36 216.505 15.7013 216.505 16.128V19.136C217.657 17.6427 219.044 16.4267 220.665 15.488C222.329 14.5493 224.527 14.08 227.257 14.08C230.159 14.08 232.569 14.72 234.489 16C236.452 17.2373 237.903 18.944 238.841 21.12C239.823 23.2533 240.313 25.6853 240.313 28.416V46.592C240.313 47.0187 240.185 47.36 239.929 47.616C239.673 47.872 239.332 48 238.905 48H237.817C237.391 48 237.049 47.872 236.793 47.616C236.537 47.36 236.409 47.0187 236.409 46.592V28.736C236.409 25.3227 235.577 22.656 233.913 20.736C232.249 18.7733 229.817 17.792 226.617 17.792C223.588 17.792 221.135 18.7733 219.257 20.736C217.423 22.656 216.505 25.3227 216.505 28.736V46.592C216.505 47.0187 216.377 47.36 216.121 47.616C215.865 47.872 215.524 48 215.097 48H214.009ZM262.331 48C260.113 48 258.363 47.5307 257.083 46.592C255.803 45.6533 254.907 44.3733 254.395 42.752C253.883 41.1307 253.627 39.3173 253.627 37.312V18.432H248.635C248.209 18.432 247.867 18.304 247.611 18.048C247.355 17.792 247.227 17.4507 247.227 17.024V16.128C247.227 15.7013 247.355 15.36 247.611 15.104C247.867 14.848 248.209 14.72 248.635 14.72H253.627V3.968C253.627 3.54133 253.755 3.2 254.011 2.944C254.267 2.688 254.609 2.56 255.035 2.56H256.123C256.55 2.56 256.891 2.688 257.147 2.944C257.403 3.2 257.531 3.54133 257.531 3.968V14.72H265.467C265.894 14.72 266.235 14.848 266.491 15.104C266.747 15.36 266.875 15.7013 266.875 16.128V17.024C266.875 17.4507 266.747 17.792 266.491 18.048C266.235 18.304 265.894 18.432 265.467 18.432H257.531V37.056C257.531 39.3173 257.894 41.088 258.619 42.368C259.387 43.648 260.731 44.288 262.651 44.288H266.107C266.534 44.288 266.875 44.416 267.131 44.672C267.387 44.928 267.515 45.2693 267.515 45.696V46.592C267.515 47.0187 267.387 47.36 267.131 47.616C266.875 47.872 266.534 48 266.107 48H262.331ZM287.764 48.64C283.625 48.64 280.34 47.296 277.908 44.608C275.476 41.8773 274.089 38.3147 273.748 33.92C273.705 33.28 273.684 32.4267 273.684 31.36C273.684 30.2933 273.705 29.44 273.748 28.8C273.961 25.8987 274.644 23.3387 275.796 21.12C276.948 18.9013 278.526 17.1733 280.532 15.936C282.58 14.6987 284.99 14.08 287.764 14.08C290.75 14.08 293.289 14.7413 295.38 16.064C297.47 17.3867 299.07 19.2853 300.18 21.76C301.332 24.2347 301.908 27.1787 301.908 30.592V31.552C301.908 31.9787 301.758 32.32 301.46 32.576C301.204 32.832 300.862 32.96 300.436 32.96H277.652C277.652 32.96 277.652 33.0453 277.652 33.216C277.652 33.3867 277.652 33.5147 277.652 33.6C277.737 35.52 278.185 37.3547 278.996 39.104C279.806 40.8107 280.958 42.2187 282.452 43.328C283.945 44.3947 285.716 44.928 287.764 44.928C289.598 44.928 291.113 44.6507 292.308 44.096C293.545 43.5413 294.526 42.944 295.252 42.304C295.977 41.6213 296.446 41.1093 296.66 40.768C297.044 40.2133 297.342 39.8933 297.556 39.808C297.769 39.68 298.11 39.616 298.58 39.616H299.604C299.988 39.616 300.308 39.744 300.564 40C300.862 40.2133 300.99 40.512 300.948 40.896C300.905 41.4933 300.564 42.24 299.924 43.136C299.326 43.9893 298.452 44.8427 297.3 45.696C296.19 46.5493 294.825 47.2533 293.204 47.808C291.582 48.3627 289.769 48.64 287.764 48.64ZM277.652 29.376H298.004V29.12C298.004 26.9867 297.598 25.0667 296.788 23.36C295.977 21.6533 294.804 20.3093 293.268 19.328C291.732 18.304 289.897 17.792 287.764 17.792C285.63 17.792 283.796 18.304 282.26 19.328C280.766 20.3093 279.614 21.6533 278.804 23.36C278.036 25.0667 277.652 26.9867 277.652 29.12V29.376ZM313.101 48C312.674 48 312.333 47.872 312.077 47.616C311.821 47.36 311.693 47.0187 311.693 46.592V3.968C311.693 3.54133 311.821 3.2 312.077 2.944C312.333 2.688 312.674 2.56 313.101 2.56H314.189C314.616 2.56 314.957 2.688 315.213 2.944C315.469 3.2 315.597 3.54133 315.597 3.968V46.592C315.597 47.0187 315.469 47.36 315.213 47.616C314.957 47.872 314.616 48 314.189 48H313.101Z" fill="#053E2F"/>
</svg>
